# xmcd CD database file
#
# Track frame offsets:
#	150
#	14012
#	26435
#	40417
#	52152
#	62320
#	75740
#	89767
#	102095
#	116157
#	130330
#	143567
#	157860
#	169137
#	183510
#	198767
#	211042
#	223570
#	235835
#	247910
#	263110
#	278970
#
# Disc length: 3912 seconds
#
# Revision: 0
# Processed by: cddbd v1.5.1PL0 Copyright (c) Steve Scherf et al.
# Submitted via: CDex 1.51
#
DISCID=320f4616
DTITLE=Naxos Jazz Legends - Giants of Jazz CD1/2
DYEAR=2003
DGENRE=Jazz
TTITLE0=Bix Beiderbecke-Three bilnd mice
TTITLE1=Peggy Lee-That old feeling
TTITLE2=Django Reinhardt-Black and white
TTITLE3=Earl Hines-On the sunny side of the street
TTITLE4=Benny Goodman-Alexander´s Ragtime band
TTITLE5=Ella Fitzgerrald-You´ll first have to swing it
TTITLE6=Miles Davis-Steeple chase
TTITLE7=Ben Bernie-It´s a lonesome old town
TTITLE8=Bessie Smith-Lady Luck Blues
TTITLE9=Rudy Vallee-My time is your time
TTITLE10=Stephane Grapelli-Bluebirds in the moonlight
TTITLE11=Frankie Carle-Sunrise serenade
TTITLE12=Hoagy Carmichael-Stardust
TTITLE13=Charlie Parker-Bird of paradise
TTITLE14=Jack Teagarden-Texas tea party
TTITLE15=Sarah Vaughan-Mean to me
TTITLE16=Kid Orly-High society
TTITLE17=Glenn Miller-Pennsylvania 6-5000
TTITLE18=Harry James-Sweet Georgia brown
TTITLE19=Thelonious Monk-Mysterioso
TTITLE20=Eddie Duchin-My twilight dream
TTITLE21=Billie Holiday-Can´t help lovin dat man
EXTD=YEAR: 2003
EXTT0=
EXTT1=
EXTT2=
EXTT3=
EXTT4=
EXTT5=
EXTT6=
EXTT7=
EXTT8=
EXTT9=
EXTT10=
EXTT11=
EXTT12=
EXTT13=
EXTT14=
EXTT15=
EXTT16=
EXTT17=
EXTT18=
EXTT19=
EXTT20=
EXTT21=
PLAYORDER=
